# xmcd CD database file
#
# Track frame offsets:
#	150
#	37418
#	55248
#	90547
#	138797
#	165003
#	198150
#	241933
#
# Disc length: 3754 seconds
#
# Revision: 1
# Processed by: cddbd v1.5.2PL0 Copyright (c) Steve Scherf et al.
# Submitted via: CDex 1.51
#
DISCID=5d0ea808
DTITLE=Jean-Nicolas Trottier - Blue Lines
DYEAR=2014
DGENRE=Jazz
TTITLE0=Blues lines
TTITLE1=Influenza Suite part 1
TTITLE2=Influenza Suite part 2
TTITLE3=Influenza Suite part 3
TTITLE4=Influenza Suite part 4
TTITLE5=Mes Deux Femmes
TTITLE6=Klondike Suite part 1
TTITLE7=Klondike Suite part 2
EXTD=YEAR: 2014
EXTT0=
EXTT1=
EXTT2=
EXTT3=
EXTT4=
EXTT5=
EXTT6=
EXTT7=
PLAYORDER=
